<svg id="Layer_1" data-name="Layer 1" xmlns="http://www.w3.org/2000/svg" viewBox="0 0 24 21"><defs><style>.cls-1{fill:#6d7278;fill-opacity:0.5;fill-rule:evenodd;}</style></defs><path class="cls-1" d="M24,20.08,20.67.62A.73.73,0,0,0,20,0H3.85a.73.73,0,0,0-.72.62L0,20.14a.75.75,0,0,0,.17.6A.69.69,0,0,0,.73,21H23.27a.74.74,0,0,0,.73-.74A1.1,1.1,0,0,0,24,20.08Zm-7.1-15A5,5,0,0,1,12,7.94,5,5,0,0,1,7.12,5.09a7,7,0,0,1-.68-2.77.73.73,0,1,1,1.46,0,5.5,5.5,0,0,0,.55,2.15,3.65,3.65,0,0,0,3.55,2c4.05,0,4.1-4,4.1-4.14a.73.73,0,1,1,1.46,0,7,7,0,0,1-.68,2.77Z" transform="translate(0)"/></svg>