<svg xmlns="http://www.w3.org/2000/svg" width="33" height="30" viewBox="0 0 33 30">
    <g fill="none" fill-rule="evenodd">
        <path stroke="#F7B500" stroke-width="1.5" d="M23.018.75H8.974c-2.908 0-3.973.276-5.04.846-1.007.54-1.799 1.33-2.338 2.339C1.026 5 .75 6.065.75 8.974v12.052c0 2.908.276 3.973.846 5.04.54 1.007 1.33 1.799 2.339 2.338 1.066.57 2.13.846 5.039.846h14.044c2.907 0 3.972-.276 5.038-.846 1.009-.54 1.8-1.33 2.339-2.339.57-1.066.846-2.13.846-5.039V8.974c0-2.908-.276-3.973-.846-5.04-.54-1.007-1.33-1.799-2.339-2.338-1.066-.57-2.13-.846-5.038-.846z" opacity=".5" transform="translate(.305)"/>
        <path fill="#F7B500" d="M20.985 10.464c.22-.248.638-.268.901-.041.286.206.308.577.088.824l-3.518 3.774c-.131.144-.11.391.044.515s.418.103.55-.041l4.046-4.35c.22-.248.637-.269.901-.042.286.206.308.577.088.825l-4.067 4.37c-.133.145-.11.393.044.516.153.124.417.103.55-.04L24.128 13c.22-.247.638-.268.902-.041.263.227.307.598.088.845L21.6 17.577c-.132.145-.11.392.043.516.155.123.418.103.55-.041l2.55-2.743c.22-.227.616-.247.88-.02.286.226.33.577.11.824l-4.53 4.866c-.879.949-2.11 1.485-3.495 1.526h-.088l-1.803 1.938c-.176.186-.462.206-.66.041l-3.825-3.134c-.198-.164-.22-.433-.044-.618L12.916 19l-.022-.083c-.286-1.402.088-2.824 1.077-3.876l2.55-2.742c.22-.227.616-.247.88-.02.264.226.308.597.088.824l-1.935 2.083c-.132.144-.11.391.044.515s.418.103.55-.041zm-4.75-.907c.22-.248.638-.248.902-.042.264.207.308.578.088.825l-3.892 4.165c-1.099 1.175-1.56 2.701-1.319 4.248l-1.363 1.463c-.484.516-.418 1.3.132 1.732l.967.805-.725.804c-.176.185-.462.206-.66.04l-3.804-3.113c-.197-.164-.22-.433-.044-.618l1.628-1.753-.022-.082c-.308-1.423.088-2.825 1.055-3.876l2.616-2.763c.22-.248.616-.248.88-.042.264.207.308.578.088.825l-1.935 2.083c-.154.165-.132.391.022.515.176.144.418.124.55-.02zm2.111.68c.22-.227.616-.247.88-.02.264.206.308.577.088.824l-.968 1.031c-.087-.165-.22-.31-.373-.433-.198-.165-.418-.268-.638-.31zm-4.903-4.206c.264-.144.594-.062.748.185l.901 1.464c.154.248.066.557-.197.701-.066.042-.176.062-.264.062-.198 0-.374-.103-.484-.268l-.901-1.443c-.154-.248-.066-.557.197-.701zm7.41.165c.154-.248.484-.33.748-.186.263.145.351.454.198.701l-.902 1.464c-.11.186-.286.268-.484.268-.11 0-.198-.02-.285-.062-.264-.144-.353-.474-.176-.721zM17.511 5c.308 0 .55.227.55.515v1.691c0 .289-.242.516-.55.516-.286 0-.55-.227-.55-.516v-1.69c0-.29.242-.516.55-.516z" transform="translate(.305)"/>
    </g>
</svg>
