<svg xmlns="http://www.w3.org/2000/svg" xmlns:xlink="http://www.w3.org/1999/xlink" width="69" height="69" viewBox="0 0 69 69">
    <defs>
        <path id="prefix__a" d="M17.947 0h33.106c6.24 0 8.503.65 10.785 1.87 2.281 1.22 4.072 3.01 5.292 5.292C68.35 9.444 69 11.707 69 17.947v33.106c0 6.24-.65 8.503-1.87 10.785-1.22 2.281-3.01 4.072-5.292 5.292C59.556 68.35 57.293 69 51.053 69H17.947c-6.24 0-8.503-.65-10.785-1.87-2.281-1.22-4.072-3.01-5.292-5.292C.65 59.556 0 57.293 0 51.053V17.947c0-6.24.65-8.503 1.87-10.785C3.09 4.881 4.88 3.09 7.162 1.87 9.444.65 11.707 0 17.947 0z"/>
    </defs>
    <g fill="none" fill-rule="evenodd">
        <path fill="#191C21" d="M17.947 0h33.106c6.24 0 8.503.65 10.785 1.87 2.281 1.22 4.072 3.01 5.292 5.292C68.35 9.444 69 11.707 69 17.947v33.106c0 6.24-.65 8.503-1.87 10.785-1.22 2.281-3.01 4.072-5.292 5.292C59.556 68.35 57.293 69 51.053 69H17.947c-6.24 0-8.503-.65-10.785-1.87-2.281-1.22-4.072-3.01-5.292-5.292C.65 59.556 0 57.293 0 51.053V17.947c0-6.24.65-8.503 1.87-10.785C3.09 4.881 4.88 3.09 7.162 1.87 9.444.65 11.707 0 17.947 0z"/>
        <use fill="#0C0C0C" xlink:href="#prefix__a"/>
    </g>
</svg>
