<svg id="Layer_1" data-name="Layer 1" xmlns="http://www.w3.org/2000/svg" viewBox="0 0 20.09 21"><defs><style>.cls-1{fill:#414347;}.cls-2{fill:#0091ff;stroke:#151517;stroke-width:1.5px;fill-rule:evenodd;}</style></defs><path class="cls-1" d="M9.25,0A1.68,1.68,0,0,0,7.57,1.68V1.9a6.72,6.72,0,0,0-5,6.5v2a10,10,0,0,1-.78,3.87h15A10,10,0,0,1,16,10.41v-2a6.72,6.72,0,0,0-5-6.5V1.68A1.68,1.68,0,0,0,9.25,0ZM.85,16a.85.85,0,0,0-.74.42.84.84,0,0,0,0,.84.87.87,0,0,0,.74.42h6a2.4,2.4,0,0,0-.15.84,2.52,2.52,0,1,0,5,0,2.64,2.64,0,0,0-.14-.84h6a.86.86,0,0,0,.74-.42.84.84,0,0,0,0-.84.86.86,0,0,0-.74-.42Z" transform="translate(0 0)"/><path class="cls-2" d="M15.34,1.64a4,4,0,1,0,4,4A4,4,0,0,0,15.34,1.64Z" transform="translate(0 0)"/></svg>